<?xml version="1.0" standalone="no"?>
<!DOCTYPE svg PUBLIC "-//W3C//DTD SVG 1.1//EN" "http://www.w3.org/Graphics/SVG/1.1/DTD/svg11.dtd" >
<svg xmlns="http://www.w3.org/2000/svg">
<metadata>Generated by IcoMoon</metadata>
<defs>
<font id="icons" horiz-adv-x="1024">
<font-face units-per-em="1024" ascent="880.8602150537635" descent="-143.13978494623655" />
<missing-glyph horiz-adv-x="1024" />
<glyph unicode="&#x20;" horiz-adv-x="0" d="" />
<glyph unicode="&#xe900;" glyph-name="task_add" d="M513.597 531.557c-145.849 0-264.083-118.234-264.083-264.083s118.234-264.083 264.083-264.083c145.849 0 264.083 118.234 264.083 264.083s-118.234 264.083-264.083 264.083zM479.49 465.536h66.020v-165.052h165.052v-66.020h-165.052v-165.052h-66.020v165.052h-165.052v66.020h165.052zM928.907 783.891h-288.282c0 70.757-57.368 128.125-128.125 128.125s-128.125-57.368-128.125-128.125h-288.282c-17.681 0-32.031-14.35-32.031-32.031v-832.813c0-17.681 14.35-32.031 32.031-32.031h832.813c17.681 0 32.031 14.35 32.031 32.031v832.813c0 17.681-14.35 32.031-32.031 32.031zM512.5 847.953c35.395 0 64.063-28.668 64.063-64.063s-28.668-64.063-64.063-64.063c-35.395 0-64.063 28.668-64.063 64.063s28.668 64.063 64.063 64.063zM896.876-48.923h-768.751v768.751h128.125v-96.094c0-17.681 14.35-32.031 32.031-32.031h448.438c17.681 0 32.031 14.35 32.031 32.031v96.094h128.125z" />
<glyph unicode="&#xe901;" glyph-name="task_remove" d="M513.491 531.204c-128.857 2.84-248.129-102.219-261.818-230.323-19.231-127.787 70.201-259.537 195.855-289.245 122.445-34.237 261.979 34.914 309.16 152.892 51.856 116.227 3.783 264.675-106.335 328.465-40.971 25.002-88.874 38.318-136.862 38.211zM710.351 300.258c0-21.994 0-43.99 0-65.984-131.969 0-263.939 0-395.908 0 0 21.994 0 43.99 0 65.984 131.969 0 263.939 0 395.908 0zM928.575 783.4c-96.041 0-192.083 0-288.123 0 2.922 80.624-82.697 146.958-160.056 124.023-55.256-13.325-97.077-67.14-96.054-124.023-98.18-0.429-196.447 0.863-294.573-0.652-34.773-8.508-23.808-48.607-25.565-74.923 0-262.933 0-525.866 0-788.797 0.168-33.706 37.395-33.624 61.962-32.013 267.47 0 534.94 0 802.411 0 33.706 0.168 33.624 37.395 32.013 61.962 0 267.47 0 534.94 0 802.411 0.386 17.182-14.827 32.4-32.013 32.014zM512.396 847.428c52.015 2.716 84.561-66.35 49.411-104.76-30.832-41.559-104.312-23.331-112.139 27.825-8.934 38.407 23.289 77.975 62.727 76.935zM896.562-48.958c-256.11 0-512.22 0-768.33 0 0 256.11 0 512.22 0 768.33 42.685 0 85.37 0 128.055 0 1.427-36.089-3.012-72.926 2.517-108.499 14.845-29.869 51.927-16.592 78.502-19.556 135.201 0.432 270.49-0.866 405.637 0.652 34.773 8.508 23.808 48.607 25.565 74.923 0 17.494 0 34.987 0 52.481 42.685 0 85.37 0 128.055 0 0-256.11 0-512.22 0-768.33z" />
<glyph unicode="&#xe902;" glyph-name="finish" d="M13.764-4.624l549.176 499.944-25.561 25.625c-20.916 20.98-32.223 48.079-33.953 75.69-0.993 0.448-2.018 0.897-2.947 1.441l-103.077 64.479c-13.934 16.4-12.941 42.313 2.274 57.56l179.311 179.792c15.215 15.247 41.032 16.272 57.4 2.274l64.287-103.365c0.513-0.961 0.993-1.954 1.441-2.979 27.515-1.73 54.549-13.069 75.466-34.049l97.535-97.791c20.916-20.98 32.223-48.079 33.953-75.69 0.993-0.448 2.018-0.929 2.979-1.441l103.077-64.479c13.966-16.4 12.941-42.313-2.274-57.56l-179.311-179.792c-15.215-15.247-41.032-16.272-57.4-2.274l-64.287 103.365c-0.545 0.961-0.993 1.954-1.441 2.979-27.515 1.73-54.549 13.069-75.466 34.049l-28.316 28.412-498.599-550.65c-14.446-15.952-36.74-18.546-49.52-5.702l-50.417 50.545c-12.78 12.813-10.218 35.17 5.702 49.648z" />
<glyph unicode="&#xe920;" glyph-name="documents" horiz-adv-x="1153" d="M224.219 783.891h-192.188c-17.617 0-32.031-14.414-32.031-32.031v-704.688c0-17.617 14.414-32.031 32.031-32.031h192.188c17.617 0 32.031 14.414 32.031 32.031v704.688c0 17.617-14.414 32.031-32.031 32.031zM192.188 591.703h-128.125v64.063h128.125v-64.063zM544.532 783.891h-192.188c-17.617 0-32.031-14.414-32.031-32.031v-704.688c0-17.617 14.414-32.031 32.031-32.031h192.188c17.617 0 32.031 14.414 32.031 32.031v704.688c0 17.617-14.414 32.031-32.031 32.031zM512.5 591.703h-128.125v64.063h128.125v-64.063zM765.836 734.362l-171.632-86.478c-15.731-7.926-22.118-27.285-14.192-43.018l288.26-572.107c7.926-15.733 27.285-22.12 43.018-14.192l171.632 86.476c15.731 7.928 22.118 27.287 14.192 43.016l-288.26 572.109c-7.928 15.733-27.287 22.122-43.018 14.194z" />
<glyph unicode="&#xe923;" glyph-name="client" d="M864.845 912.016h-768.751c-52.852 0-96.094-43.242-96.094-96.094v-832.813c0-52.852 43.242-96.094 96.094-96.094h768.751c52.852 0 96.094 43.242 96.094 96.094v832.813c0 52.852-43.242 96.094-96.094 96.094zM832.813 15.14h-704.688v768.751h704.688v-768.751zM256.25 335.453h448.438v-64.063h-448.438zM256.25 207.327h448.438v-64.063h-448.438zM320.313 623.734c0 53.071 43.023 96.094 96.094 96.094s96.094-43.023 96.094-96.094c0-53.071-43.023-96.094-96.094-96.094s-96.094 43.023-96.094 96.094zM480.469 527.64h-128.125c-52.852 0-96.094-28.828-96.094-64.063v-64.063h320.313v64.063c0 35.234-43.242 64.063-96.094 64.063z" />
<glyph unicode="&#xe93f;" glyph-name="payment" d="M928.907 783.891h-832.813c-52.852 0-96.094-43.242-96.094-96.094v-576.563c0-52.852 43.242-96.094 96.094-96.094h832.813c52.852 0 96.094 43.242 96.094 96.094v576.563c0 52.852-43.242 96.094-96.094 96.094zM96.094 719.828h832.813c17.363 0 32.031-14.668 32.031-32.031v-96.094h-896.876v96.094c0 17.363 14.668 32.031 32.031 32.031zM928.907 79.202h-832.813c-17.363 0-32.031 14.668-32.031 32.031v288.282h896.876v-288.282c0-17.363-14.668-32.031-32.031-32.031zM128.125 271.39h64.063v-128.125h-64.063zM256.25 271.39h64.063v-128.125h-64.063zM384.375 271.39h64.063v-128.125h-64.063z" />
<glyph unicode="&#xe94b;" glyph-name="template" d="M0 719.828l320.313 128.125v-768.751l-320.313-128.125zM384.375 879.984l320.313-192.188v-736.719l-320.313 160.156zM768.751 687.797l256.25 192.188v-768.751l-256.25-192.188z" />
<glyph unicode="&#xe953;" glyph-name="calendar" d="M320.313 527.64h128.125v-128.125h-128.125zM512.5 527.64h128.125v-128.125h-128.125zM704.688 527.64h128.125v-128.125h-128.125zM128.125 143.265h128.125v-128.125h-128.125zM320.313 143.265h128.125v-128.125h-128.125zM512.5 143.265h128.125v-128.125h-128.125zM320.313 335.453h128.125v-128.125h-128.125zM512.5 335.453h128.125v-128.125h-128.125zM704.688 335.453h128.125v-128.125h-128.125zM128.125 335.453h128.125v-128.125h-128.125zM832.813 912.016v-64.063h-128.125v64.063h-448.438v-64.063h-128.125v64.063h-128.125v-1025.001h960.938v1025.001h-128.125zM896.876-48.923h-832.813v704.688h832.813v-704.688z" />
<glyph unicode="&#xe986;" glyph-name="search" d="M993.232 39.768l-242.789 206.496c-25.099 22.588-51.941 32.958-73.624 31.957 57.312 67.134 91.932 154.229 91.932 249.42 0 212.285-172.090 384.375-384.375 384.375-212.283 0-384.375-172.090-384.375-384.375s172.090-384.375 384.375-384.375c95.191 0 182.286 34.62 249.42 91.934-1.001-21.683 9.369-48.525 31.957-73.624l206.496-242.789c35.357-39.284 93.113-42.596 128.345-7.363s31.923 92.989-7.361 128.345zM384.375 271.39c-141.522 0-256.25 114.728-256.25 256.25s114.728 256.25 256.25 256.25 256.25-114.728 256.25-256.25-114.726-256.25-256.25-256.25z" />
<glyph unicode="&#xe991;" glyph-name="edit" d="M1003.914 93.34l-461.002 395.146c21.469 40.337 33.651 86.366 33.651 135.248 0 159.213-129.068 288.282-288.282 288.282-29.122 0-57.228-4.336-83.728-12.366l166.553-166.553c24.914-24.914 24.914-65.684 0-90.598l-101.589-101.589c-24.914-24.914-65.684-24.914-90.598 0l-166.553 166.553c-8.030-26.5-12.366-54.605-12.366-83.728 0-159.213 129.068-288.282 288.282-288.282 48.882 0 94.911 12.182 135.248 33.653l395.146-461.002c22.93-26.75 62.077-28.254 86.989-3.341l101.591 101.591c24.912 24.912 23.409 64.057-3.341 86.987z" />
<glyph unicode="&#xe992;" glyph-name="settings" d="M448.438 783.891v16.016c0 26.426-21.621 48.047-48.047 48.047h-160.156c-26.426 0-48.047-21.621-48.047-48.047v-16.016h-192.188v-128.125h192.188v-16.016c0-26.426 21.621-48.047 48.047-48.047h160.156c26.426 0 48.047 21.621 48.047 48.047v16.016h576.563v128.125h-576.563zM256.25 655.765v128.125h128.125v-128.125h-128.125zM832.813 479.593c0 26.426-21.621 48.047-48.047 48.047h-160.156c-26.426 0-48.047-21.621-48.047-48.047v-16.016h-576.563v-128.125h576.563v-16.016c0-26.426 21.621-48.047 48.047-48.047h160.156c26.426 0 48.047 21.621 48.047 48.047v16.016h192.188v128.125h-192.188v16.016zM640.626 335.453v128.125h128.125v-128.125h-128.125zM448.438 159.281c0 26.426-21.621 48.047-48.047 48.047h-160.156c-26.426 0-48.047-21.621-48.047-48.047v-16.016h-192.188v-128.125h192.188v-16.016c0-26.426 21.621-48.047 48.047-48.047h160.156c26.426 0 48.047 21.621 48.047 48.047v16.016h576.563v128.125h-576.563v16.016zM256.25 15.14v128.125h128.125v-128.125h-128.125z" />
<glyph unicode="&#xe997;" glyph-name="generator" d="M256.25 719.828l-128.125 128.125h-64.063v-64.063l128.125-128.125zM320.313 912.016h64.063v-128.125h-64.063zM576.563 591.703h128.125v-64.063h-128.125zM640.626 783.891v64.063h-64.063l-128.125-128.125 64.063-64.063zM0 591.703h128.125v-64.063h-128.125zM320.313 335.453h64.063v-128.125h-64.063zM64.063 335.453v-64.063h64.063l128.125 128.125-64.063 64.063zM1010.987 29.153l-636.74 636.74c-18.686 18.686-49.262 18.686-67.948 0l-60.177-60.177c-18.686-18.686-18.686-49.262 0-67.948l636.74-636.74c18.686-18.686 49.262-18.686 67.948 0l60.177 60.177c18.686 18.686 18.686 49.262 0 67.948zM480.469 367.484l-192.188 192.188 64.063 64.063 192.188-192.188-64.063-64.063z" />
<glyph unicode="&#xe9b8;" glyph-name="task" d="M928.907 783.891h-288.282c0 70.761-57.362 128.125-128.125 128.125-70.761 0-128.125-57.364-128.125-128.125h-288.282c-17.689 0-32.031-14.342-32.031-32.031v-832.813c0-17.691 14.342-32.031 32.031-32.031h832.813c17.691 0 32.031 14.34 32.031 32.031v832.813c0 17.689-14.34 32.031-32.031 32.031zM512.5 847.953c35.381 0 64.063-28.682 64.063-64.063s-28.682-64.063-64.063-64.063c-35.381 0-64.063 28.682-64.063 64.063s28.682 64.063 64.063 64.063zM896.876-48.923h-768.751v768.751h128.125v-96.094c0-17.689 14.342-32.031 32.031-32.031h448.438c17.691 0 32.031 14.342 32.031 32.031v96.094h128.125v-768.751zM448.438 52.666l-205.455 237.486 58.565 58.567 146.889-114.856 275.011 242.981 58.571-58.565z" />
<glyph unicode="&#xe9bf;" glyph-name="menu" horiz-adv-x="1409" d="M0 719.828h896.876v-192.188h-896.876v192.188zM0 463.578h896.876v-192.188h-896.876v192.188zM0 207.327h896.876v-192.188h-896.876v192.188zM992.97 463.578l192.188-192.188 192.188 192.188z" />
<glyph unicode="&#xe9ce;" glyph-name="show" d="M512.5 719.828c-223.536 0-417.29-130.169-512.5-320.313 95.211-190.144 288.964-320.313 512.5-320.313 223.53 0 417.284 130.169 512.5 320.313-95.209 190.144-288.97 320.313-512.5 320.313zM765.197 549.958c60.221-38.412 111.251-89.862 149.58-150.443-38.329-60.581-89.361-112.031-149.582-150.443-75.668-48.265-163.049-73.776-252.695-73.776-89.648 0-177.031 25.511-252.699 73.776-60.217 38.41-111.247 89.86-149.578 150.443 38.329 60.583 89.361 112.033 149.58 150.443 3.922 2.502 7.884 4.927 11.872 7.307-9.97-27.355-15.425-56.878-15.425-87.682 0-141.52 114.728-256.25 256.25-256.25 141.52 0 256.25 114.73 256.25 256.25 0 30.804-5.457 60.327-15.423 87.684 3.982-2.38 7.946-4.807 11.87-7.309v0zM512.5 495.609c0-53.072-43.022-96.094-96.094-96.094s-96.094 43.022-96.094 96.094 43.022 96.094 96.094 96.094 96.094-43.024 96.094-96.094z" />
<glyph unicode="&#xea07;" glyph-name="warning" d="M512.5 819.151l429.521-856.062h-859.045l429.523 856.062zM512.5 912.016c-22.092 0-44.183-14.897-60.944-44.692l-437.501-871.964c-33.519-59.59-5.005-108.346 63.366-108.346h870.158c68.367 0 96.887 48.756 63.362 108.346h0.002l-437.501 871.964c-16.758 29.795-38.85 44.692-60.942 44.692v0zM576.563 79.202c0-35.381-28.682-64.063-64.063-64.063s-64.063 28.682-64.063 64.063c0 35.381 28.682 64.063 64.063 64.063s64.063-28.682 64.063-64.063zM512.5 207.327c-35.381 0-64.063 28.682-64.063 64.063v192.188c0 35.381 28.682 64.063 64.063 64.063s64.063-28.682 64.063-64.063v-192.188c0-35.381-28.682-64.063-64.063-64.063z" />
<glyph unicode="&#xea08;" glyph-name="notification" d="M512.5 815.922c-111.227 0-215.795-43.314-294.444-121.963s-121.963-183.217-121.963-294.444c0-111.227 43.314-215.795 121.963-294.444s183.217-121.963 294.444-121.963c111.227 0 215.795 43.314 294.444 121.963s121.963 183.217 121.963 294.444c0 111.227-43.314 215.795-121.963 294.444s-183.217 121.963-294.444 121.963zM512.5 912.016v0c283.046 0 512.5-229.454 512.5-512.5s-229.454-512.5-512.5-512.5c-283.046 0-512.5 229.454-512.5 512.5s229.454 512.5 512.5 512.5zM448.438 207.327h128.125v-128.125h-128.125zM448.438 719.828h128.125v-384.375h-128.125z" />
<glyph unicode="&#xea0a;" glyph-name="add" d="M992.97 527.64h-352.344v352.344c0 17.689-14.342 32.031-32.031 32.031h-192.188c-17.689 0-32.031-14.342-32.031-32.031v-352.344h-352.344c-17.689 0-32.031-14.342-32.031-32.031v-192.188c0-17.689 14.342-32.031 32.031-32.031h352.344v-352.344c0-17.689 14.342-32.031 32.031-32.031h192.188c17.689 0 32.031 14.342 32.031 32.031v352.344h352.344c17.689 0 32.031 14.342 32.031 32.031v192.188c0 17.689-14.342 32.031-32.031 32.031z" />
<glyph unicode="&#xea0c;" glyph-name="info" d="M448.438 607.718c0 26.426 21.621 48.047 48.047 48.047h32.031c26.426 0 48.047-21.621 48.047-48.047v-32.031c0-26.426-21.621-48.047-48.047-48.047h-32.031c-26.426 0-48.047 21.621-48.047 48.047v32.031zM640.626 143.265h-256.25v64.063h64.063v192.188h-64.063v64.063h192.188v-256.25h64.063zM512.5 912.016c-283.046 0-512.5-229.454-512.5-512.5s229.454-512.5 512.5-512.5 512.5 229.454 512.5 512.5-229.454 512.5-512.5 512.5zM512.5-16.891c-229.975 0-416.407 186.432-416.407 416.407s186.432 416.407 416.407 416.407 416.407-186.432 416.407-416.407-186.432-416.407-416.407-416.407z" />
<glyph unicode="&#xea0d;" glyph-name="close" d="M512.5 912.016c-283.046 0-512.5-229.454-512.5-512.5s229.454-512.5 512.5-512.5 512.5 229.454 512.5 512.5-229.454 512.5-512.5 512.5zM512.5-16.891c-229.975 0-416.407 186.432-416.407 416.407s186.432 416.407 416.407 416.407 416.407-186.432 416.407-416.407-186.432-416.407-416.407-416.407zM672.657 655.765l-160.156-160.156-160.156 160.156-96.094-96.094 160.156-160.156-160.156-160.156 96.094-96.094 160.156 160.156 160.156-160.156 96.094 96.094-160.156 160.156 160.156 160.156z" />
<glyph unicode="&#xea0f;" glyph-name="delete" d="M1015.654 88.551c-0.004 0.004-0.008 0.008-0.012 0.010l-310.948 310.954 310.948 310.954c0.004 0.004 0.008 0.006 0.012 0.010 3.347 3.349 5.768 7.261 7.319 11.427 4.25 11.387 1.826 24.706-7.331 33.863l-146.889 146.889c-9.157 9.155-22.472 11.577-33.861 7.327-4.164-1.552-8.078-3.972-11.429-7.317 0-0.004-0.004-0.006-0.008-0.010l-310.952-310.956-310.952 310.954c-0.004 0.004-0.006 0.006-0.010 0.010-3.349 3.345-7.261 5.766-11.425 7.317-11.391 4.252-24.706 1.828-33.863-7.327l-146.891-146.891c-9.157-9.157-11.579-22.474-7.329-33.861 1.554-4.164 3.974-8.080 7.319-11.427 0.004-0.002 0.006-0.006 0.010-0.010l310.954-310.952-310.954-310.956c-0.002-0.004-0.006-0.006-0.008-0.010-3.345-3.349-5.766-7.261-7.321-11.425-4.252-11.387-1.828-24.706 7.329-33.863l146.891-146.889c9.159-9.157 22.474-11.579 33.863-7.329 4.164 1.554 8.078 3.974 11.427 7.319 0.002 0.004 0.006 0.006 0.010 0.010l310.952 310.954 310.952-310.954c0.004-0.002 0.008-0.006 0.012-0.008 3.351-3.347 7.261-5.768 11.425-7.321 11.389-4.25 24.708-1.828 33.861 7.329l146.889 146.891c9.157 9.157 11.581 22.476 7.331 33.863-1.554 4.164-3.974 8.076-7.321 11.425z" />
<glyph unicode="&#xea41;" glyph-name="up" d="M0 399.515c0-283.046 229.454-512.5 512.5-512.5s512.5 229.454 512.5 512.5-229.454 512.5-512.5 512.5-512.5-229.454-512.5-512.5zM928.907 399.515c0-229.975-186.432-416.407-416.407-416.407s-416.407 186.432-416.407 416.407 186.432 416.407 416.407 416.407 416.407-186.432 416.407-416.407zM707.435 242.105l90.6 90.6-285.535 285.533-285.533-285.535 90.596-90.596 194.936 194.934z" />
<glyph unicode="&#xea42;" glyph-name="right" d="M512.5 912.016c-283.046 0-512.5-229.454-512.5-512.5s229.454-512.5 512.5-512.5 512.5 229.454 512.5 512.5-229.454 512.5-512.5 512.5zM512.5-16.891c-229.975 0-416.407 186.432-416.407 416.407s186.432 416.407 416.407 416.407 416.407-186.432 416.407-416.407-186.432-416.407-416.407-416.407zM355.091 204.581l90.6-90.6 285.533 285.535-285.535 285.533-90.596-90.596 194.934-194.936z" />
<glyph unicode="&#xea43;" glyph-name="down" d="M1025.001 399.515c0 283.046-229.454 512.5-512.5 512.5s-512.5-229.454-512.5-512.5 229.454-512.5 512.5-512.5 512.5 229.454 512.5 512.5zM96.094 399.515c0 229.975 186.432 416.407 416.407 416.407s416.407-186.432 416.407-416.407-186.432-416.407-416.407-416.407-416.407 186.432-416.407 416.407zM317.566 556.925l-90.6-90.6 285.535-285.533 285.533 285.535-90.596 90.596-194.936-194.934z" />
<glyph unicode="&#xea44;" glyph-name="left" d="M512.5-112.985c283.046 0 512.5 229.454 512.5 512.5s-229.454 512.5-512.5 512.5-512.5-229.454-512.5-512.5 229.454-512.5 512.5-512.5zM512.5 815.922c229.975 0 416.407-186.432 416.407-416.407s-186.432-416.407-416.407-416.407-416.407 186.432-416.407 416.407 186.432 416.407 416.407 416.407zM669.91 594.45l-90.6 90.6-285.533-285.535 285.535-285.533 90.596 90.596-194.934 194.936z" />
<glyph unicode="&#xea55;" glyph-name="active" d="M512.5 912.016c-283.046 0-512.5-229.454-512.5-512.5s229.454-512.5 512.5-512.5 512.5 229.454 512.5 512.5-229.454 512.5-512.5 512.5zM512.5 271.39c-70.761 0-128.125 57.362-128.125 128.125 0 70.761 57.364 128.125 128.125 128.125 70.763 0 128.125-57.364 128.125-128.125 0-70.763-57.362-128.125-128.125-128.125z" />
<glyph unicode="&#xea56;" glyph-name="inactive" d="M512.5 912.016c-283.046 0-512.5-229.454-512.5-512.5s229.454-512.5 512.5-512.5 512.5 229.454 512.5 512.5-229.454 512.5-512.5 512.5zM512.5 15.14c-212.285 0-384.375 172.090-384.375 384.375s172.090 384.375 384.375 384.375c212.285 0 384.375-172.090 384.375-384.375s-172.090-384.375-384.375-384.375z" />
<glyph unicode="&#xf0c7;" glyph-name="save" horiz-adv-x="878" d="M219.429 0h438.857v219.429h-438.857v-219.429zM731.429 0h73.143v512c0 10.857-9.714 34.286-17.143 41.714l-160.571 160.571c-8 8-30.286 17.143-41.714 17.143v-237.714c0-30.286-24.571-54.857-54.857-54.857h-329.143c-30.286 0-54.857 24.571-54.857 54.857v237.714h-73.143v-731.429h73.143v237.714c0 30.286 24.571 54.857 54.857 54.857h475.429c30.286 0 54.857-24.571 54.857-54.857v-237.714zM512 530.285v182.857c0 9.714-8.571 18.286-18.286 18.286h-109.714c-9.714 0-18.286-8.571-18.286-18.286v-182.857c0-9.714 8.571-18.286 18.286-18.286h109.714c9.714 0 18.286 8.571 18.286 18.286zM877.714 512v-530.286c0-30.286-24.571-54.857-54.857-54.857h-768c-30.286 0-54.857 24.571-54.857 54.857v768c0 30.286 24.571 54.857 54.857 54.857h530.286c30.286 0 72-17.143 93.714-38.857l160-160c21.714-21.714 38.857-63.429 38.857-93.714z" />
</font>
</defs>
</svg>
